<svg
  xmlns="http://www.w3.org/2000/svg"
  xmlns:xlink="http://www.w3.org/1999/xlink"
  width="35.998"
  height="38.793"
  viewBox="0 0 425 458">
  <defs>
    <linearGradient id="a">
      <stop offset="0" stop-color="#324f8a"></stop>
      <stop offset="1" stop-color="#325e8a"></stop>
    </linearGradient>
    <linearGradient
      xlink:href="#a"
      id="b"
      gradientUnits="userSpaceOnUse"
      gradientTransform="matrix(1.33396 0 0 1.33396 404.049 -265.9)"
      x1="-111"
      y1="967.862"
      x2="-110.5"
      y2="617.362"
    ></linearGradient>
  </defs>
  <path
    d="M379,375L212,454,46,375,5,83,212,5,421,83Z"
    fill="url(#a)"
    fill-rule="evenodd"
    stroke="#fff"
    stroke-width="20"
  />
  <path
    d="M212,454L46,375,5,83,212,5V454Z"
    fill="url(#b)"
    fill-rule="evenodd"
  />
  <path
    d="M278.157,344.332V228.354c0-8.25-9.761-8.6-9.756-.348,0,4.409-.061,141.219-0.084,144.968-42.147.087-102.595-.131-110.778-0.083,0-5.327,0-138.109.06-144.885-0.058-8.249-9.328-8.185-9.407.7,0.079,5.423,0,115.629,0,115.629,0,21.092-35.192,21.092-35.192,0V204.671c1.827-16.716,5.18-27.84,19.164-29.952H291.746c12.091-.013,20.593,10.8,21.254,30.3V344.332C313,365.424,278.157,365.424,278.157,344.332ZM212.826,164.271a53.636,53.636,0,1,1,53.833-53.636A53.735,53.735,0,0,1,212.826,164.271Z"
    fill="#fff"
  />
</svg>
